<?xml version="1.0" encoding="UTF-8" standalone="no" ?>
<!DOCTYPE svg PUBLIC "-//W3C//DTD SVG 1.1//EN" "http://www.w3.org/Graphics/SVG/1.1/DTD/svg11.dtd">
<svg xmlns="http://www.w3.org/2000/svg" xmlns:xlink="http://www.w3.org/1999/xlink" version="1.1" width="1080" height="1080" viewBox="0 0 1080 1080" xml:space="preserve">
<desc>Created with Fabric.js 5.2.4</desc>
<defs>
</defs>
<rect x="0" y="0" width="100%" height="100%" fill="transparent"></rect>
<g transform="matrix(1 0 0 1 540 540)" id="872d7d46-9501-47fb-acb8-ea5a9c0934e0"  >
<rect style="stroke: none; stroke-width: 1; stroke-dasharray: none; stroke-linecap: butt; stroke-dashoffset: 0; stroke-linejoin: miter; stroke-miterlimit: 4; fill: rgb(255,255,255); fill-rule: nonzero; opacity: 1; visibility: hidden;" vector-effect="non-scaling-stroke"  x="-540" y="-540" rx="0" ry="0" width="1080" height="1080" />
</g>
<g transform="matrix(1 0 0 1 540 540)" id="5adcb299-3436-41b2-a0cd-a8bdfa8b3f37"  >
</g>
<g transform="matrix(0 0 0 0 0 0)"  >
<g style=""   >
</g>
</g>
<g transform="matrix(0 0 0 0 0 0)"  >
<g style=""   >
</g>
</g>
<g transform="matrix(0 0 0 0 0 0)"  >
<g style=""   >
</g>
</g>
<g transform="matrix(0 0 0 0 0 0)"  >
<g style=""   >
</g>
</g>
<g transform="matrix(0 0 0 0 0 0)"  >
<g style=""   >
</g>
</g>
<g transform="matrix(0 0 0 0 0 0)"  >
<g style=""   >
</g>
</g>
<g transform="matrix(0 0 0 0 0 0)"  >
<g style=""   >
</g>
</g>
<g transform="matrix(0 0 0 0 0 0)"  >
<g style=""   >
</g>
</g>
<g transform="matrix(NaN NaN NaN NaN 0 0)"  >
<g style=""   >
</g>
</g>
<g transform="matrix(NaN NaN NaN NaN 0 0)"  >
<g style=""   >
</g>
</g>
<g transform="matrix(NaN NaN NaN NaN 0 0)"  >
<g style=""   >
</g>
</g>
<g transform="matrix(NaN NaN NaN NaN 0 0)"  >
<g style=""   >
</g>
</g>
<g transform="matrix(NaN NaN NaN NaN 0 0)"  >
<g style=""   >
</g>
</g>
<g transform="matrix(43.56 0 0 43.56 542.07 520.06)"  >
<g style="" vector-effect="non-scaling-stroke"   >
		<g transform="matrix(1 0 0 1 -0.4 0)"  >
<path style="stroke: none; stroke-width: 1; stroke-dasharray: none; stroke-linecap: butt; stroke-dashoffset: 0; stroke-linejoin: miter; stroke-miterlimit: 4; fill: rgb(255,219,110); fill-rule: nonzero; opacity: 1;" vector-effect="non-scaling-stroke"  transform=" translate(-11.57, -11.99)" d="M 18.75 11.35 C 18.484769125547647 11.347642272181774 18.220318997534406 11.320862512382964 17.96 11.27 C 17.709714119269933 11.217453633774568 17.46520364037032 11.140416085628114 17.23 11.04 L 17.06 11 L 16.939999999999998 11 Q 16.79 11 16.79 11.21 L 16.79 11.540000000000001 C 16.77583271236925 11.602541048969602 16.77583271236925 11.667458951030401 16.79 11.73 C 16.840226682308487 11.8122478486371 16.91315222219815 11.878228099013459 17 11.92 C 17.240533110970645 12.04034288898665 17.49615716627007 12.127793223694347 17.76 12.18 C 18.087610133065983 12.258319170488113 18.423161328798326 12.298585313975995 18.76 12.299999999999999 C 19.09884916157368 12.310168807857787 19.436970918196696 12.262831761930563 19.760000000000005 12.159999999999998 C 20.02687563329687 12.089980461373555 20.275746035306714 11.963840668574047 20.490000000000002 11.79 C 20.692503046954453 11.633484697795996 20.859510400084925 11.435802524702783 20.98 11.209999999999999 C 21.09466125829402 10.966112414850862 21.15277296657749 10.699482223903184 21.150000000000002 10.43 C 21.153613319940966 10.095652101855636 21.04830986363683 9.769211387312817 20.85 9.5 C 20.583344690216784 9.197034915942108 20.236796681675735 8.975244190475836 19.85 8.86 L 18.900000000000002 8.559999999999999 C 18.634562715211306 8.491306785390611 18.386084544232418 8.368769605181845 18.17 8.2 C 18.04199146657886 8.077188570206413 17.96973861673174 7.907394373065673 17.970000000000002 7.7299999999999995 C 17.955433108958818 7.488273552681405 18.074416924033578 7.257982297697999 18.28 7.13 C 18.556694213735295 6.995769785295067 18.86289029112655 6.933842488744027 19.17 6.95 C 19.607559901908807 6.939378113443474 20.041816945826987 7.028281130308613 20.44 7.209999999999999 C 20.52138895778085 7.2514997566676245 20.609359539276202 7.2785676278969635 20.700000000000003 7.29 C 20.800000000000004 7.29 20.85 7.21 20.85 7.07 L 20.85 6.71 C 20.852993863357057 6.63225350273319 20.832050627043078 6.555461636248594 20.790000000000003 6.49 C 20.736588689663822 6.421932554289664 20.668131698083883 6.367166961025713 20.590000000000003 6.33 C 20.50083333909929 6.280903102025027 20.407047175016853 6.240709031703981 20.310000000000002 6.209999999999999 C 20.18554828832793 6.166074312589167 20.058671878094323 6.1293469306794375 19.930000000000003 6.1 L 19.490000000000002 6 C 19.32687924495308 5.988215074015636 19.16312075504692 5.988215074015636 18.999999999999996 6 C 18.71940112887641 5.995162458693066 18.439651898621683 6.032237657883452 18.169999999999998 6.11 C 17.91754416873109 6.183689809136564 17.6804253460706 6.302249220466809 17.470000000000002 6.460000000000001 C 17.27479279203262 6.602446427910947 17.114155428691323 6.787008504941374 17 7 C 16.8773378161671 7.227073952696632 16.81533955842702 7.4819556789613975 16.82 7.74 C 16.814014696922722 8.101019958331683 16.930316822011836 8.453450640419911 17.15 8.74 C 17.424576331223108 9.07075603167593 17.794887915845685 9.30831440671683 18.209999999999997 9.42 L 19.209999999999997 9.72 C 19.457423001264818 9.777811737715666 19.687254005270464 9.8944423964648 19.88 10.06 C 19.999723368565054 10.186742318436654 20.064433694019073 10.355708168233257 20.06 10.530000000000001 C 20.064392252542433 10.787480176469314 19.930935679477493 11.027702007986205 19.709999999999997 11.160000000000002 C 19.41318181523184 11.309308049390049 19.081314690435093 11.374990084506072 18.749999999999996 11.350000000000001 z M 12.94 6.5 C 12.924581830386815 6.401979793058542 12.879165263785255 6.311146659855422 12.809999999999999 6.24 C 12.735200575850156 6.184840849274614 12.642382303180678 6.159851314325139 12.549999999999999 6.17 L 12 6.17 C 11.908074338311074 6.164897383441204 11.8169379826918 6.189434094569471 11.74 6.24 C 11.66710026962052 6.3084299860577 11.621004150618472 6.400622224061796 11.61 6.5 L 10.61 10.9 L 9.469999999999999 6.5 C 9.451813772663398 6.400775197939715 9.402828287589815 6.309802154231631 9.329999999999998 6.24 C 9.329999999999998 6.24 9.199999999999998 6.17 9.069999999999999 6.17 L 8.419999999999998 6.17 C 8.309999999999999 6.17 8.259999999999998 6.2299999999999995 8.259999999999998 6.34 C 8.269700397688302 6.431983447680628 8.289829723594078 6.522565414256619 8.319999999999999 6.609999999999999 L 9.879999999999999 11.75 C 9.900276511233915 11.841440871399115 9.941337424010461 11.926984439683583 10 12 C 10.07860753692319 12.04582602988834 10.16926047056741 12.066745937652392 10.26 12.06 L 10.83 12.06 C 10.923894371063861 12.066342784152003 11.017629101853586 12.045512843976507 11.1 12 C 11.163036409987658 11.92211185540297 11.204427012765068 11.828982999153798 11.219999999999999 11.73 L 12.219999999999999 7.45 L 13.219999999999999 11.74 C 13.22830809516758 11.83804786364734 13.270778097211235 11.93006620140859 13.339999999999998 12 C 13.418685912157688 12.054973183210585 13.514516345088905 12.079818110266828 13.609999999999998 12.07 L 14.179999999999998 12.07 C 14.268715775204509 12.074362848299296 14.356449125203195 12.049797510299664 14.429999999999998 12 C 14.50522387679783 11.932048142590096 14.554677188840078 11.840206277368779 14.569999999999999 11.74 L 16.18 6.6000000000000005 C 16.185862403537506 6.546827765613089 16.185862403537506 6.493172234386912 16.18 6.44 C 16.18388911272275 6.4034364596817674 16.18388911272275 6.366563540318233 16.18 6.33 C 16.186802833405704 6.283155495905383 16.171094655480804 6.235848396529336 16.137623129475735 6.202376870524265 C 16.10415160347066 6.168905344519193 16.056844504094613 6.153197166594294 16.009999999999998 6.16 L 15.389999999999999 6.16 C 15.298220222025636 6.156250173993271 15.207491012584104 6.180677268842915 15.129999999999999 6.23 C 15.068432395286411 6.30628311638677 15.024085930281261 6.394976046397067 14.999999999999998 6.49 L 14 11 z M 5.77 8.63 C 5.534550354854809 8.599108388869704 5.2974552830538455 8.58241155282738 5.059999999999999 8.579999999999998 C 4.4714747779106485 8.54907591903756 3.8918908005563857 8.733973875003334 3.4300000000000006 9.099999999999998 C 3.0315286429026234 9.441262223257727 2.8105954193100686 9.945726417127393 2.8299999999999996 10.469999999999999 C 2.806481960906946 10.946522278425707 2.984288091497989 11.410995435888024 3.3199999999999994 11.749999999999998 C 3.6805215959017206 12.082712997206187 4.160093317597329 12.255791513306859 4.6499999999999995 12.229999999999999 C 5.423706962903467 12.252244273938295 6.16343195978057 11.91197077537483 6.6499999999999995 11.309999999999999 C 6.708453493540221 11.444050646414116 6.775251097268384 11.574305973684034 6.85 11.7 C 6.921187631118092 11.809864847338098 7.0014693201960805 11.913562029063833 7.09 12.01 C 7.138850074706716 12.059468224542849 7.20547708983167 12.087311740935549 7.275 12.087311740935549 C 7.34452291016833 12.087311740935549 7.411149925293284 12.059468224542849 7.46 12.01 L 7.88 11.73 C 7.95098365655446 11.686048733707025 7.998651258684944 11.612713961198589 8.01 11.530000000000001 C 8.026165414447263 11.477891607092849 8.026165414447263 11.422108392907154 8.01 11.370000000000001 C 7.928965517343984 11.21850046219197 7.858789102753667 11.061438962870783 7.800000000000001 10.9 C 7.7464235663574 10.704697566155385 7.7228210820949865 10.50239055819184 7.7299999999999995 10.3 L 7.7299999999999995 8.19 C 7.778282519604764 7.591167441162778 7.579568576815909 6.99863859357419 7.18 6.549999999999999 C 6.666285542627053 6.118053785837802 5.996254940355346 5.918855498675943 5.329999999999999 6 C 4.992445380420801 5.999874495881726 4.656302798148841 6.04357303157708 4.3299999999999965 6.130000000000001 C 4.039448350152961 6.1975463284069985 3.7576055117684306 6.298204484972903 3.489999999999999 6.4300000000000015 C 3.419417185164011 6.461182982169849 3.3575977371396357 6.509264775077696 3.31 6.569999999999999 C 3.285566087296152 6.644719875068777 3.2855660872961514 6.725280124931222 3.31 6.8 L 3.31 7.13 C 3.31 7.27 3.31 7.33 3.45 7.33 C 3.486247029085574 7.337845179744718 3.523752970914426 7.337845179744718 3.56 7.33 L 3.79 7.25 C 3.993128492151268 7.150295773464251 4.203776667100248 7.066705227849576 4.419999999999997 7 C 4.655474645205481 6.940979466470709 4.897242597162862 6.9107584724760365 5.14 6.91 C 5.526567188819001 6.869504906524498 5.913760516751064 6.980643732134627 6.22 7.220000000000001 C 6.45813978533258 7.519113336095464 6.5694452282916185 7.899706141052175 6.529999999999999 8.28 L 6.529999999999999 8.77 z M 6.55 9.530000000000001 L 6.55 9.8 C 6.55077853966036 9.995486335754405 6.527265093350915 10.190312033746958 6.48 10.38 C 6.437793114432747 10.539260200964907 6.359042720168129 10.686489198937888 6.249999999999999 10.81 C 6.083265339981855 11.005999051405201 5.865050916688701 11.151475333600636 5.619999999999999 11.23 C 5.401414499590214 11.306893161196799 5.171701485089977 11.347430751990958 4.9399999999999995 11.35 C 4.68366694603365 11.369071800271563 4.430705419364141 11.282342133984875 4.239999999999999 11.11 C 4.062858007365093 10.91812187595097 3.975606489165788 10.660002801278026 3.999999999999999 10.399999999999999 C 3.983242804921868 10.108667208561206 4.105693189338938 9.826660262630984 4.329999999999999 9.639999999999999 C 4.621441662092921 9.435697361322797 4.975336014715222 9.340145886114774 5.329999999999999 9.37 L 5.949999999999999 9.37 C 6.152772519674837 9.412333271715722 6.353072824821871 9.465746686421598 6.549999999999995 9.529999999999998 z M 19.76 15 C 17.369396271813137 16.005816365612535 14.803556567260095 16.52917969607766 12.209999999999997 16.54 C 8.738543827464085 16.540652229204678 5.326695405907133 15.637718606530008 2.309999999999995 13.919999999999995 C 2.0700000000000003 13.769999999999998 1.8800000000000006 14.019999999999998 2.0900000000000003 14.209999999999997 C 4.805305882520251 16.66464573890411 8.339685161168752 18.016340740526495 12.000000000000002 18.000000000000004 C 14.886534833070836 18.007116332016057 17.708587576987526 17.146564445908126 20.1 15.529999999999998 C 20.44 15.219999999999999 20.130000000000003 14.809999999999999 19.76 15 z" stroke-linecap="round" />
</g>
		<g transform="matrix(1 0 0 1 8.13 3.31)"  >
<path style="stroke: none; stroke-width: 1; stroke-dasharray: none; stroke-linecap: butt; stroke-dashoffset: 0; stroke-linejoin: miter; stroke-miterlimit: 4; fill: rgb(255,219,110); fill-rule: nonzero; opacity: 1;" vector-effect="non-scaling-stroke"  transform=" translate(-20.1, -15.3)" d="M 18.38 14.06 C 18.189999999999998 14.200000000000001 18.22 14.39 18.43 14.360000000000001 C 19.14 14.270000000000001 20.71 14.090000000000002 20.99 14.450000000000001 C 21.269999999999996 14.81 20.68 16.28 20.41 16.94 C 20.330000000000002 17.14 20.51 17.220000000000002 20.69 17.07 C 21.613750283615488 16.219576841124415 22.071559380923844 14.976420430547254 21.92 13.73 C 20.75462240176651 13.271084622849349 19.440474380159046 13.393589946897503 18.380000000000003 14.06 z" stroke-linecap="round" />
</g>
</g>
</g>
<g transform="matrix(NaN NaN NaN NaN 0 0)"  >
<g style=""   >
</g>
</g>
</svg>