<?xml version="1.0" encoding="UTF-8" standalone="no" ?>
<!DOCTYPE svg PUBLIC "-//W3C//DTD SVG 1.1//EN" "http://www.w3.org/Graphics/SVG/1.1/DTD/svg11.dtd">
<svg xmlns="http://www.w3.org/2000/svg" xmlns:xlink="http://www.w3.org/1999/xlink" version="1.1" width="1080" height="1080" viewBox="0 0 1080 1080" xml:space="preserve">
<desc>Created with Fabric.js 5.2.4</desc>
<defs>
</defs>
<rect x="0" y="0" width="100%" height="100%" fill="transparent"></rect>
<g transform="matrix(1 0 0 1 540 540)" id="872d7d46-9501-47fb-acb8-ea5a9c0934e0"  >
<rect style="stroke: none; stroke-width: 1; stroke-dasharray: none; stroke-linecap: butt; stroke-dashoffset: 0; stroke-linejoin: miter; stroke-miterlimit: 4; fill: rgb(255,255,255); fill-rule: nonzero; opacity: 1; visibility: hidden;" vector-effect="non-scaling-stroke"  x="-540" y="-540" rx="0" ry="0" width="1080" height="1080" />
</g>
<g transform="matrix(1 0 0 1 540 540)" id="5adcb299-3436-41b2-a0cd-a8bdfa8b3f37"  >
</g>
<g transform="matrix(0 0 0 0 0 0)"  >
<g style=""   >
</g>
</g>
<g transform="matrix(0 0 0 0 0 0)"  >
<g style=""   >
</g>
</g>
<g transform="matrix(0 0 0 0 0 0)"  >
<g style=""   >
</g>
</g>
<g transform="matrix(0 0 0 0 0 0)"  >
<g style=""   >
</g>
</g>
<g transform="matrix(0 0 0 0 0 0)"  >
<g style=""   >
</g>
</g>
<g transform="matrix(0 0 0 0 0 0)"  >
<g style=""   >
</g>
</g>
<g transform="matrix(0 0 0 0 0 0)"  >
<g style=""   >
</g>
</g>
<g transform="matrix(0 0 0 0 0 0)"  >
<g style=""   >
</g>
</g>
<g transform="matrix(NaN NaN NaN NaN 0 0)"  >
<g style=""   >
</g>
</g>
<g transform="matrix(NaN NaN NaN NaN 0 0)"  >
<g style=""   >
</g>
</g>
<g transform="matrix(NaN NaN NaN NaN 0 0)"  >
<g style=""   >
</g>
</g>
<g transform="matrix(NaN NaN NaN NaN 0 0)"  >
<g style=""   >
</g>
</g>
<g transform="matrix(28.36 0 0 27.53 539.91 484.13)"  >
<g style="" vector-effect="non-scaling-stroke"   >
		<g transform="matrix(1 0 0 1 -5.77 1.5)"  >
<polygon style="stroke: none; stroke-width: 1; stroke-dasharray: none; stroke-linecap: butt; stroke-dashoffset: 0; stroke-linejoin: miter; stroke-miterlimit: 4; fill: rgb(255,219,110); fill-rule: nonzero; opacity: 0.3;" vector-effect="non-scaling-stroke"  points="-0.25,0 0.25,0 -0.25,0 " />
</g>
		<g transform="matrix(1 0 0 1 3 -3.5)"  >
<path style="stroke: none; stroke-width: 1; stroke-dasharray: none; stroke-linecap: butt; stroke-dashoffset: 0; stroke-linejoin: miter; stroke-miterlimit: 4; fill: rgb(255,219,110); fill-rule: nonzero; opacity: 0.3;" vector-effect="non-scaling-stroke"  transform=" translate(-27.02, -21)" d="M 41.8 19.6 C 40.8 19 39.599999999999994 18.700000000000003 38.5 18.8 C 38.1 17.5 37.4 16.400000000000002 36.4 15.600000000000001 C 36.199999999999996 15.400000000000002 35.9 15.400000000000002 35.699999999999996 15.600000000000001 C 35.699999999999996 15.700000000000001 34.49999999999999 16.900000000000002 34.8 19.6 C 34.8 19.8 34.8 20 34.599999999999994 20.200000000000003 C 34.49999999999999 20.400000000000002 34.3 20.400000000000002 34.099999999999994 20.400000000000002 L 32.599999999999994 20.400000000000002 L 32.599999999999994 17.400000000000002 C 32.599999999999994 17.1 32.39999999999999 17.000000000000004 32.099999999999994 17.000000000000004 L 30.099999999999994 17.000000000000004 L 30.099999999999994 10.500000000000004 C 30.099999999999994 10.200000000000003 29.899999999999995 10.000000000000004 29.599999999999994 10.000000000000004 L 26 10.000000000000004 C 25.7 10.000000000000004 25.5 10.200000000000003 25.5 10.500000000000004 L 25.5 13.500000000000004 L 19 13.500000000000004 C 18.7 13.500000000000004 18.5 13.700000000000003 18.5 14.000000000000004 L 18.5 17.000000000000004 L 14.5 17.000000000000004 C 14.2 17.000000000000004 14 17.200000000000003 14 17.500000000000004 L 14 20.500000000000004 L 12.5 20.500000000000004 C 12.2 20.500000000000004 12 20.700000000000003 12 21.000000000000004 C 12 29.1 17.1 32 22 32 C 28.4 32 34.2 28.7 37.5 23.3 C 39.4 23 41 21.900000000000002 42 20.3 C 42.1 20 42 19.7 41.8 19.6 C 41.8 19.6 41.8 19.6 41.8 19.6 z M 31.5 20.5 L 29 20.5 L 29 18 L 31.5 18 L 31.5 20.5 z M 18.5 20.5 L 18.5 18 L 21 18 L 21 20.5 L 18.5 20.5 z M 22 20.5 L 22 18 L 24.5 18 L 24.5 20.5 L 22 20.5 z M 25.5 20.5 L 25.5 18 L 28 18 L 28 20.5 L 25.5 20.5 z M 28.5 17 L 26.5 17 L 26.5 14.5 L 29 14.5 L 29 17 L 28.5 17 z M 26.5 11 L 29 11 L 29 13.5 L 26.5 13.5 L 26.5 11 z M 25.5 17 L 23 17 L 23 14.5 L 25.5 14.5 L 25.5 17 z M 19.5 14.5 L 22 14.5 L 22 17 L 19.5 17 L 19.5 14.5 z M 15 18 L 17.5 18 L 17.5 20.5 L 15 20.5 L 15 18 z M 18 27 C 17.4 27 17 26.6 17 26 C 17 25.4 17.4 25 18 25 C 18.6 25 19 25.4 19 26 C 19 26.6 18.6 27 18 27 z" stroke-linecap="round" />
</g>
		<g transform="matrix(1 0 0 1 -13.02 9.5)"  >
<circle style="stroke: none; stroke-width: 1; stroke-dasharray: none; stroke-linecap: butt; stroke-dashoffset: 0; stroke-linejoin: miter; stroke-miterlimit: 4; fill: rgb(255,219,110); fill-rule: nonzero; opacity: 1;" vector-effect="non-scaling-stroke"  cx="0" cy="0" r="1" />
</g>
		<g transform="matrix(1 0 0 1 -6.02 5.5)"  >
<path style="stroke: none; stroke-width: 1; stroke-dasharray: none; stroke-linecap: butt; stroke-dashoffset: 0; stroke-linejoin: miter; stroke-miterlimit: 4; fill: rgb(255,219,110); fill-rule: nonzero; opacity: 1;" vector-effect="non-scaling-stroke"  transform=" translate(-18, -30)" d="M 29.8 29.1 C 29 28.6 28 28.3 26.900000000000002 28.400000000000002 C 26.6 27.500000000000004 26.000000000000004 26.700000000000003 25.3 26.1 C 25.1 26 24.8 26 24.7 26.200000000000003 C 24 27.1 23.7 28.300000000000004 24 29.500000000000004 C 24 29.600000000000005 24 29.800000000000004 23.9 29.900000000000002 C 23.799999999999997 30.000000000000004 23.7 30.1 23.599999999999998 30.000000000000004 L 23 30.000000000000004 L 23 27.500000000000004 C 23 27.200000000000003 22.8 27.000000000000004 22.5 27.000000000000004 L 20 27.000000000000004 L 20 21.500000000000004 C 20 21.200000000000003 19.8 21.000000000000004 19.5 21.000000000000004 L 16.5 21.000000000000004 C 16.2 21.000000000000004 16 21.200000000000003 16 21.500000000000004 L 16 24 L 10.5 24 C 10.2 24 10 24.2 10 24.5 L 10 27 L 7.5 27 C 7.2 27 7 27.2 7 27.5 L 7 30 L 6.5 30 C 6.2 30 6 30.2 6 30.5 C 6 38.2 11.6 39 14 39 C 19.1 39 23.8 36.3 26.4 31.9 C 27.799999999999997 31.7 29.099999999999998 30.9 29.9 29.7 C 30.1 29.5 30 29.2 29.8 29.1 z M 22 30 L 20 30 L 20 28 L 22 28 L 22 30 z M 17 30 L 17 28 L 19 28 L 19 30 L 17 30 z M 14 30 L 14 28 L 16 28 L 16 30 L 14 30 z M 11 30 L 11 28 L 13 28 L 13 30 L 11 30 z M 19 25 L 19 27 L 17 27 L 17 25 L 19 25 z M 17 22 L 19 22 L 19 24 L 17 24 L 17 22 z M 16 27 L 14 27 L 14 25 L 16 25 L 16 27 z M 11 25 L 13 25 L 13 27 L 11 27 L 11 25 z M 8 28 L 10 28 L 10 30 L 8 30 L 8 28 z M 26 31 C 25.8 31 25.7 31.1 25.6 31.3 C 23.3 35.4 18.8 38 14 38 C 11.4 38 7.2 37.1 7 31 L 23.5 31 C 23.9 31 24.3 30.8 24.6 30.5 C 24.900000000000002 30.2 25 29.7 25 29.3 C 24.9 28.6 25 27.900000000000002 25.2 27.2 C 25.7 27.599999999999998 26 28.3 26.099999999999998 29 C 26.099999999999998 29.3 26.299999999999997 29.5 26.599999999999998 29.5 C 26.7 29.5 26.799999999999997 29.5 26.799999999999997 29.4 C 27.499999999999996 29.2 28.199999999999996 29.299999999999997 28.799999999999997 29.599999999999998 C 28 30.4 27 30.9 26 31 z" stroke-linecap="round" />
</g>
</g>
</g>
<g transform="matrix(NaN NaN NaN NaN 0 0)"  >
<g style=""   >
</g>
</g>
</svg>