<?xml version="1.0" encoding="UTF-8" standalone="no" ?>
<!DOCTYPE svg PUBLIC "-//W3C//DTD SVG 1.1//EN" "http://www.w3.org/Graphics/SVG/1.1/DTD/svg11.dtd">
<svg xmlns="http://www.w3.org/2000/svg" xmlns:xlink="http://www.w3.org/1999/xlink" version="1.1" width="1080" height="1080" viewBox="0 0 1080 1080" xml:space="preserve">
<desc>Created with Fabric.js 5.2.4</desc>
<defs>
</defs>
<rect x="0" y="0" width="100%" height="100%" fill="transparent"></rect>
<g transform="matrix(1 0 0 1 540 540)" id="872d7d46-9501-47fb-acb8-ea5a9c0934e0"  >
<rect style="stroke: none; stroke-width: 1; stroke-dasharray: none; stroke-linecap: butt; stroke-dashoffset: 0; stroke-linejoin: miter; stroke-miterlimit: 4; fill: rgb(255,255,255); fill-rule: nonzero; opacity: 1; visibility: hidden;" vector-effect="non-scaling-stroke"  x="-540" y="-540" rx="0" ry="0" width="1080" height="1080" />
</g>
<g transform="matrix(1 0 0 1 540 540)" id="5adcb299-3436-41b2-a0cd-a8bdfa8b3f37"  >
</g>
<g transform="matrix(0 0 0 0 0 0)"  >
<g style=""   >
</g>
</g>
<g transform="matrix(0 0 0 0 0 0)"  >
<g style=""   >
</g>
</g>
<g transform="matrix(0 0 0 0 0 0)"  >
<g style=""   >
</g>
</g>
<g transform="matrix(0 0 0 0 0 0)"  >
<g style=""   >
</g>
</g>
<g transform="matrix(0 0 0 0 0 0)"  >
<g style=""   >
</g>
</g>
<g transform="matrix(0 0 0 0 0 0)"  >
<g style=""   >
</g>
</g>
<g transform="matrix(0 0 0 0 0 0)"  >
<g style=""   >
</g>
</g>
<g transform="matrix(0 0 0 0 0 0)"  >
<g style=""   >
</g>
</g>
<g transform="matrix(NaN NaN NaN NaN 0 0)"  >
<g style=""   >
</g>
</g>
<g transform="matrix(NaN NaN NaN NaN 0 0)"  >
<g style=""   >
</g>
</g>
<g transform="matrix(NaN NaN NaN NaN 0 0)"  >
<g style=""   >
</g>
</g>
<g transform="matrix(NaN NaN NaN NaN 0 0)"  >
<g style=""   >
</g>
</g>
<g transform="matrix(NaN NaN NaN NaN 0 0)"  >
<g style=""   >
</g>
</g>
<g transform="matrix(NaN NaN NaN NaN 0 0)"  >
<g style=""   >
</g>
</g>
<g transform="matrix(38.58 0 0 38.58 540 511.04)" id="b0047e3b-3e3f-4027-a77e-60e28a0e57fe"  >
<path style="stroke: rgb(0,0,0); stroke-width: 0; stroke-dasharray: none; stroke-linecap: butt; stroke-dashoffset: 0; stroke-linejoin: miter; stroke-miterlimit: 4; fill: rgb(255,219,110); fill-rule: nonzero; opacity: 1;" vector-effect="non-scaling-stroke"  transform=" translate(-12, -12.01)" d="M 11.27 15.58 L 1.61 15.58 C 1.2470673460610204 14.421514172467555 1.0649275785410806 13.213994972983528 1.0699999999999974 12.000000000000004 C 1.07 10.75 1.25 9.55 1.61 8.42 L 17.47 8.42 C 18.420289706673714 8.417334374979372 19.332426314551427 8.793655806881015 20.004385253835206 9.465614746164794 C 20.676344193118986 10.137573685448574 21.052665625020627 11.049710293326285 21.05 12 C 21.055317822590798 12.945900658182024 20.68396890106361 13.855028428081932 20.017925748796564 14.52670011403011 C 19.351882596529514 15.19837179997829 18.445911916405624 15.577357881884257 17.5 15.58 z M 10.82 16.78 L 2.05 16.78 C 2.9742134689286477 18.89948710532684 4.500757838042585 20.70073991444078 6.439999999999999 21.96 C 8.383795422680775 23.250817245419857 10.666652785437053 23.93637044734514 13 23.93 C 17.15 23.93 20.78 21.81 22.93 18.63 C 21.790573078853992 17.4481535561452 20.221645944457705 16.777301953851616 18.579999999999995 16.77 z M 18.58 7.23 C 20.279999999999998 7.23 21.83 6.510000000000001 22.93 5.380000000000001 C 20.49920848365255 1.7572196565143052 16.288618554117193 -0.254564136613868 11.942927247625876 0.13047077320457046 C 7.597235941134562 0.5155056830230089 3.805956791419412 3.236267339973662 2.049999999999997 7.2300000000000075 L 10.79 7.23 z" stroke-linecap="round" />
</g>
<g transform="matrix(NaN NaN NaN NaN 0 0)"  >
<g style=""   >
</g>
</g>
</svg>