<?xml version="1.0" encoding="UTF-8" standalone="no" ?>
<!DOCTYPE svg PUBLIC "-//W3C//DTD SVG 1.1//EN" "http://www.w3.org/Graphics/SVG/1.1/DTD/svg11.dtd">
<svg xmlns="http://www.w3.org/2000/svg" xmlns:xlink="http://www.w3.org/1999/xlink" version="1.1" width="1080" height="1080" viewBox="0 0 1080 1080" xml:space="preserve">
<desc>Created with Fabric.js 5.2.4</desc>
<defs>
</defs>
<rect x="0" y="0" width="100%" height="100%" fill="transparent"></rect>
<g transform="matrix(1 0 0 1 540 540)" id="5adcb299-3436-41b2-a0cd-a8bdfa8b3f37"  >
</g>
<g transform="matrix(1 0 0 1 540 540)" id="872d7d46-9501-47fb-acb8-ea5a9c0934e0"  >
<rect style="stroke: none; stroke-width: 1; stroke-dasharray: none; stroke-linecap: butt; stroke-dashoffset: 0; stroke-linejoin: miter; stroke-miterlimit: 4; fill: rgb(255,255,255); fill-rule: nonzero; opacity: 1; visibility: hidden;" vector-effect="non-scaling-stroke"  x="-540" y="-540" rx="0" ry="0" width="1080" height="1080" />
</g>
<g transform="matrix(0 0 0 0 0 0)"  >
<g style=""   >
</g>
</g>
<g transform="matrix(0 0 0 0 0 0)"  >
<g style=""   >
</g>
</g>
<g transform="matrix(0 0 0 0 0 0)"  >
<g style=""   >
</g>
</g>
<g transform="matrix(0 0 0 0 0 0)"  >
<g style=""   >
</g>
</g>
<g transform="matrix(0 0 0 0 0 0)"  >
<g style=""   >
</g>
</g>
<g transform="matrix(0 0 0 0 0 0)"  >
<g style=""   >
</g>
</g>
<g transform="matrix(0 0 0 0 0 0)"  >
<g style=""   >
</g>
</g>
<g transform="matrix(0 0 0 0 0 0)"  >
<g style=""   >
</g>
</g>
<g transform="matrix(0 0 0 0 0 0)"  >
<g style=""   >
</g>
</g>
<g transform="matrix(0 0 0 0 0 0)"  >
<g style=""   >
</g>
</g>
<g transform="matrix(0 0 0 0 0 0)"  >
<g style=""   >
</g>
</g>
<g transform="matrix(0 0 0 0 0 0)"  >
<g style=""   >
</g>
</g>
<g transform="matrix(0 0 0 0 0 0)"  >
<g style=""   >
</g>
</g>
<g transform="matrix(0 0 0 0 0 0)"  >
<g style=""   >
</g>
</g>
<g transform="matrix(0 0 0 0 0 0)"  >
<g style=""   >
</g>
</g>
<g transform="matrix(0 0 0 0 0 0)"  >
<g style=""   >
</g>
</g>
<g transform="matrix(0 0 0 0 0 0)"  >
<g style=""   >
</g>
</g>
<g transform="matrix(NaN NaN NaN NaN 0 0)"  >
<g style=""   >
</g>
</g>
<g transform="matrix(NaN NaN NaN NaN 0 0)"  >
<g style=""   >
</g>
</g>
<g transform="matrix(NaN NaN NaN NaN 0 0)"  >
<g style=""   >
</g>
</g>
<g transform="matrix(1 0 0 1 540 540)"  >
<g style="" vector-effect="non-scaling-stroke"   >
		<g transform="matrix(25 0 0 25 0.34 -180.56)"  >
<path style="stroke: none; stroke-width: 1; stroke-dasharray: none; stroke-linecap: butt; stroke-dashoffset: 0; stroke-linejoin: miter; stroke-miterlimit: 4; fill: rgb(255,219,110); fill-rule: nonzero; opacity: 1;" vector-effect="non-scaling-stroke"  transform=" translate(-16.01, -8.78)" d="M 16.0497 8.44062 C 22.6378 3.32607 19.2566 0 19.2566 0 C 19.7598 5.28738 13.813 6.53583 12.2189 10.1692 C 11.1312 12.6485 12.9638 14.8193 16.0475 17.5554 C 15.7749 16.9494 15.3544 16.3606 14.9288 15.7645 C 13.4769 13.7313 11.9645 11.6132 16.0497 8.44062 Z" stroke-linecap="round" />
</g>
		<g transform="matrix(25 0 0 25 92.59 -84.84)"  >
<path style="stroke: none; stroke-width: 1; stroke-dasharray: none; stroke-linecap: butt; stroke-dashoffset: 0; stroke-linejoin: miter; stroke-miterlimit: 4; fill: rgb(255,219,110); fill-rule: nonzero; opacity: 1;" vector-effect="non-scaling-stroke"  transform=" translate(-19.7, -12.61)" d="M 17.1015 18.677 C 17.1015 18.677 19.0835 17.0779 17.5139 15.3008 C 12.1931 9.27186 23.3333 6.53583 23.3333 6.53583 C 16.5317 9.8125 17.5471 11.7574 19.2567 14.1202 C 21.0871 16.6538 17.1015 18.677 17.1015 18.677 Z" stroke-linecap="round" />
</g>
		<g transform="matrix(25 0 0 25 235 111.34)"  >
<path style="stroke: none; stroke-width: 1; stroke-dasharray: none; stroke-linecap: butt; stroke-dashoffset: 0; stroke-linejoin: miter; stroke-miterlimit: 4; fill: rgb(255,219,110); fill-rule: nonzero; opacity: 1;" vector-effect="non-scaling-stroke"  transform=" translate(-25.4, -20.45)" d="M 22.937 23.4456 C 29.0423 20.3258 26.2195 17.3278 24.2492 17.7317 C 23.7662 17.8305 23.5509 17.9162 23.5509 17.9162 C 23.5509 17.9162 23.7302 17.64 24.0726 17.5204 C 27.9705 16.1729 30.9682 21.4949 22.8143 23.6028 C 22.8143 23.6029 22.9088 23.5198 22.937 23.4456 Z" stroke-linecap="round" />
</g>
		<g transform="matrix(25 0 0 25 -30.32 75.42)"  >
<path style="stroke: none; stroke-width: 1; stroke-dasharray: none; stroke-linecap: butt; stroke-dashoffset: 0; stroke-linejoin: miter; stroke-miterlimit: 4; fill: rgb(255,219,110); fill-rule: nonzero; opacity: 1;" vector-effect="non-scaling-stroke"  transform=" translate(-14.79, -19.02)" d="M 10.233 19.4969 C 6.41312 18.9953 12.3275 17.6139 12.3275 17.6139 C 12.3275 17.6139 10.0307 17.4616 7.20592 18.8043 C 3.86577 20.3932 15.4681 21.1158 21.474 19.5625 C 22.0984 19.1432 22.9614 18.7798 22.9614 18.7798 C 22.9614 18.7798 20.5037 19.2114 18.0561 19.4145 C 15.0612 19.6612 11.8459 19.7093 10.233 19.4969 Z" stroke-linecap="round" />
</g>
		<g transform="matrix(25 0 0 25 -13.51 163.49)"  >
<path style="stroke: none; stroke-width: 1; stroke-dasharray: none; stroke-linecap: butt; stroke-dashoffset: 0; stroke-linejoin: miter; stroke-miterlimit: 4; fill: rgb(255,219,110); fill-rule: nonzero; opacity: 1;" vector-effect="non-scaling-stroke"  transform=" translate(-15.46, -22.54)" d="M 11.6864 22.4758 C 9.55624 22.2592 10.951 21.2439 10.951 21.2439 C 5.43898 23.0429 14.0178 25.083 21.7199 22.8682 C 20.9012 22.5844 20.3806 22.0653 20.3806 22.0653 C 16.6163 22.7781 14.441 22.7553 11.6864 22.4758 Z" stroke-linecap="round" />
</g>
		<g transform="matrix(25 0 0 25 -8.64 251.73)"  >
<path style="stroke: none; stroke-width: 1; stroke-dasharray: none; stroke-linecap: butt; stroke-dashoffset: 0; stroke-linejoin: miter; stroke-miterlimit: 4; fill: rgb(255,219,110); fill-rule: nonzero; opacity: 1;" vector-effect="non-scaling-stroke"  transform=" translate(-15.65, -26.07)" d="M 12.6145 25.6991 C 10.486 25.4585 11.7295 24.7474 11.7295 24.7474 C 6.72594 26.1222 14.7729 28.9625 21.1433 26.2777 C 20.0999 25.8787 19.3528 25.4181 19.3528 25.4181 C 16.5111 25.9469 15.1931 25.9884 12.6145 25.6991 Z" stroke-linecap="round" />
</g>
		<g transform="matrix(25 0 0 25 -17.92 319.24)"  >
<path style="stroke: none; stroke-width: 1; stroke-dasharray: none; stroke-linecap: butt; stroke-dashoffset: 0; stroke-linejoin: miter; stroke-miterlimit: 4; fill: rgb(255,219,110); fill-rule: nonzero; opacity: 1;" vector-effect="non-scaling-stroke"  transform=" translate(-15.28, -28.77)" d="M 25.9387 27.3388 C 25.9387 27.3388 26.8589 28.0844 24.9252 28.6612 C 21.2481 29.7566 9.62093 30.0874 6.39094 28.7049 C 5.22984 28.2082 7.40723 27.5189 8.09215 27.3742 C 8.80646 27.2219 9.21466 27.2503 9.21466 27.2503 C 7.9234 26.3558 0.868489 29.0067 5.63111 29.7659 C 18.6195 31.8372 29.3077 28.8331 25.9387 27.3388 Z" stroke-linecap="round" />
</g>
		<g transform="matrix(25 0 0 25 54.09 362.1)"  >
<path style="stroke: none; stroke-width: 1; stroke-dasharray: none; stroke-linecap: butt; stroke-dashoffset: 0; stroke-linejoin: miter; stroke-miterlimit: 4; fill: rgb(255,219,110); fill-rule: nonzero; opacity: 1;" vector-effect="non-scaling-stroke"  transform=" translate(-18.16, -30.48)" d="M 28 28.9679 C 27.7869 31.6947 18.7877 32.2683 12.9274 31.8994 C 9.10432 31.6583 8.33812 31.0558 8.32691 31.047 C 11.9859 31.6402 18.1549 31.7482 23.1568 30.8225 C 27.5903 30.0016 28 28.9679 28 28.9679 Z" stroke-linecap="round" />
</g>
</g>
</g>
<g transform="matrix(NaN NaN NaN NaN 0 0)"  >
<g style=""   >
</g>
</g>
</svg>