<?xml version="1.0" encoding="UTF-8" standalone="no" ?>
<!DOCTYPE svg PUBLIC "-//W3C//DTD SVG 1.1//EN" "http://www.w3.org/Graphics/SVG/1.1/DTD/svg11.dtd">
<svg xmlns="http://www.w3.org/2000/svg" xmlns:xlink="http://www.w3.org/1999/xlink" version="1.1" width="1080" height="1080" viewBox="0 0 1080 1080" xml:space="preserve">
<desc>Created with Fabric.js 5.2.4</desc>
<defs>
</defs>
<rect x="0" y="0" width="100%" height="100%" fill="transparent"></rect>
<g transform="matrix(1 0 0 1 540 540)" id="872d7d46-9501-47fb-acb8-ea5a9c0934e0"  >
<rect style="stroke: none; stroke-width: 1; stroke-dasharray: none; stroke-linecap: butt; stroke-dashoffset: 0; stroke-linejoin: miter; stroke-miterlimit: 4; fill: rgb(255,255,255); fill-rule: nonzero; opacity: 1; visibility: hidden;" vector-effect="non-scaling-stroke"  x="-540" y="-540" rx="0" ry="0" width="1080" height="1080" />
</g>
<g transform="matrix(1 0 0 1 540 540)" id="5adcb299-3436-41b2-a0cd-a8bdfa8b3f37"  >
</g>
<g transform="matrix(0 0 0 0 0 0)"  >
<g style=""   >
</g>
</g>
<g transform="matrix(0 0 0 0 0 0)"  >
<g style=""   >
</g>
</g>
<g transform="matrix(0 0 0 0 0 0)"  >
<g style=""   >
</g>
</g>
<g transform="matrix(0 0 0 0 0 0)"  >
<g style=""   >
</g>
</g>
<g transform="matrix(0 0 0 0 0 0)"  >
<g style=""   >
</g>
</g>
<g transform="matrix(0 0 0 0 0 0)"  >
<g style=""   >
</g>
</g>
<g transform="matrix(0 0 0 0 0 0)"  >
<g style=""   >
</g>
</g>
<g transform="matrix(0 0 0 0 0 0)"  >
<g style=""   >
</g>
</g>
<g transform="matrix(1.64 0 0 1.64 542.85 541.75)"  >
<path style="stroke: rgb(0,0,0); stroke-width: 0; stroke-dasharray: none; stroke-linecap: butt; stroke-dashoffset: 0; stroke-linejoin: miter; stroke-miterlimit: 4; fill: rgb(255,219,110); fill-rule: nonzero; opacity: 1;" vector-effect="non-scaling-stroke"  transform=" translate(-320, -256.01)" d="M 316.3 452 C 314.2 452 312.1 451.4 310.2 450.4 L 291 439 C 288.1 437.4 289.5 436.8 290.5 436.5 C 294.3 435.2 295.1 434.9 299.2 432.5 C 299.59999999999997 432.3 300.2 432.4 300.59999999999997 432.6 L 315.4 441.40000000000003 C 315.9 441.70000000000005 316.7 441.70000000000005 317.2 441.40000000000003 L 375 408 C 375.5 407.7 375.9 407.1 375.9 406.4 L 375.9 339.7 C 375.9 339 375.59999999999997 338.4 375 338.09999999999997 L 317.2 304.79999999999995 C 316.7 304.49999999999994 316 304.49999999999994 315.4 304.79999999999995 L 257.59999999999997 338.09999999999997 C 256.99999999999994 338.4 256.7 339.09999999999997 256.7 339.7 L 256.7 406.4 C 256.7 407 257.09999999999997 407.59999999999997 257.59999999999997 407.9 L 273.4 417 C 282 421.3 287.29999999999995 416.2 287.29999999999995 411.2 L 287.29999999999995 345.29999999999995 C 287.29999999999995 344.4 287.99999999999994 343.59999999999997 288.99999999999994 343.59999999999997 L 296.29999999999995 343.59999999999997 C 297.19999999999993 343.59999999999997 297.99999999999994 344.29999999999995 297.99999999999994 345.29999999999995 L 297.99999999999994 411.19999999999993 C 297.99999999999994 422.69999999999993 291.79999999999995 429.19999999999993 280.8999999999999 429.19999999999993 C 277.5999999999999 429.19999999999993 274.8999999999999 429.19999999999993 267.5999999999999 425.5999999999999 L 252.39999999999992 416.8999999999999 C 248.69999999999993 414.69999999999993 246.29999999999993 410.69999999999993 246.29999999999993 406.3999999999999 L 246.29999999999993 339.69999999999993 C 246.29999999999993 335.3999999999999 248.59999999999994 331.29999999999995 252.39999999999992 329.19999999999993 L 310.19999999999993 295.79999999999995 C 313.8999999999999 293.69999999999993 318.69999999999993 293.69999999999993 322.29999999999995 295.79999999999995 L 380.09999999999997 329.19999999999993 C 383.79999999999995 331.3999999999999 386.2 335.3999999999999 386.2 339.69999999999993 L 386.2 406.3999999999999 C 386.2 410.69999999999993 383.9 414.7999999999999 380.09999999999997 416.8999999999999 L 322.29999999999995 450.2999999999999 C 320.59999999999997 451.3999999999999 318.49999999999994 451.9999999999999 316.29999999999995 451.9999999999999 z M 363 386.2 C 363 373.7 354.6 370.4 336.8 368 C 318.8 365.6 317 364.4 317 360.2 C 317 356.7 318.5 352.09999999999997 331.8 352.09999999999997 C 343.7 352.09999999999997 348.1 354.7 349.90000000000003 362.7 C 350.1 363.5 350.70000000000005 364 351.50000000000006 364 L 359.00000000000006 364 C 359.50000000000006 364 359.90000000000003 363.8 360.20000000000005 363.5 C 360.50000000000006 363.1 360.70000000000005 362.7 360.6 362.2 C 359.40000000000003 348.4 350.3 342 331.8 342 C 315.3 342 305.5 349 305.5 360.6 C 305.5 373.3 315.3 376.70000000000005 331.1 378.3 C 350 380.2 351.5 382.90000000000003 351.5 386.6 C 351.5 393.1 346.3 395.8 334.1 395.8 C 318.8 395.8 315.40000000000003 392 314.3 384.40000000000003 C 314.2 383.6 313.5 383.00000000000006 312.6 383.00000000000006 L 305.1 383.00000000000006 C 304.20000000000005 383.00000000000006 303.40000000000003 383.70000000000005 303.40000000000003 384.70000000000005 C 303.40000000000003 394.40000000000003 308.70000000000005 406.00000000000006 334.00000000000006 406.00000000000006 C 352.50000000000006 406.00000000000006 363.00000000000006 398.80000000000007 363.00000000000006 386.20000000000005 z M 417.5 336.09999999999997 C 417.5 342.2 412.5 347.2 406.4 347.2 C 400.29999999999995 347.2 395.29999999999995 342.2 395.29999999999995 336.09999999999997 C 395.29999999999995 329.79999999999995 400.49999999999994 324.99999999999994 406.4 324.99999999999994 C 412.4 324.8999999999999 417.5 329.79999999999995 417.5 336.09999999999997 z M 415.7 336.09999999999997 C 415.7 330.9 411.5 326.79999999999995 406.3 326.79999999999995 C 401.2 326.79999999999995 397 330.9 397 336.09999999999997 C 397 341.29999999999995 401.2 345.49999999999994 406.3 345.49999999999994 C 411.5 345.3999999999999 415.7 341.19999999999993 415.7 336.09999999999997 z M 411.2 342.29999999999995 L 408.59999999999997 342.29999999999995 C 408.49999999999994 341.69999999999993 408.09999999999997 338.49999999999994 408.09999999999997 338.4 C 407.9 337.7 407.7 337.29999999999995 406.79999999999995 337.29999999999995 L 404.59999999999997 337.29999999999995 L 404.59999999999997 342.29999999999995 L 402.2 342.29999999999995 L 402.2 329.79999999999995 L 406.5 329.79999999999995 C 408 329.79999999999995 410.9 329.79999999999995 410.9 333.09999999999997 C 410.9 335.4 409.4 335.9 408.5 336.2 C 410.2 336.3 410.3 337.4 410.6 339 C 410.70000000000005 340 410.90000000000003 341.7 411.20000000000005 342.3 z M 408.4 333.49999999999994 C 408.4 331.79999999999995 407.2 331.79999999999995 406.59999999999997 331.79999999999995 L 404.59999999999997 331.79999999999995 L 404.59999999999997 335.29999999999995 L 406.49999999999994 335.29999999999995 C 408.09999999999997 335.29999999999995 408.3999999999999 334.19999999999993 408.3999999999999 333.49999999999994 z M 137.3 191 C 137.3 188.3 135.9 185.9 133.60000000000002 184.6 L 72.30000000000003 149.3 C 71.30000000000003 148.70000000000002 70.10000000000002 148.4 68.90000000000002 148.3 L 68.30000000000003 148.3 C 67.10000000000002 148.3 66.00000000000003 148.70000000000002 64.90000000000002 149.3 L 3.7 184.6 C 1.4 185.9 0 188.4 0 191 L 0.1 286 C 0.1 287.3 0.7999999999999999 288.5 1.9000000000000001 289.2 C 3 289.9 4.4 289.9 5.6000000000000005 289.2 L 42 268.3 C 44.3 266.90000000000003 45.7 264.5 45.7 261.90000000000003 L 45.7 217.50000000000003 C 45.7 214.90000000000003 47.1 212.40000000000003 49.400000000000006 211.10000000000002 L 64.9 202.20000000000002 C 66.10000000000001 201.50000000000003 67.30000000000001 201.20000000000002 68.60000000000001 201.20000000000002 C 69.9 201.20000000000002 71.2 201.50000000000003 72.30000000000001 202.20000000000002 L 87.80000000000001 211.10000000000002 C 90.10000000000001 212.40000000000003 91.50000000000001 214.90000000000003 91.50000000000001 217.50000000000003 L 91.50000000000001 261.90000000000003 C 91.50000000000001 264.50000000000006 92.90000000000002 267.00000000000006 95.20000000000002 268.3 L 131.60000000000002 289.2 C 132.70000000000002 289.9 134.20000000000002 289.9 135.3 289.2 C 136.4 288.59999999999997 137.10000000000002 287.3 137.10000000000002 286 L 137.3 191 z M 472.5 87.3 L 472.5 263.7 C 472.5 266.3 471.1 268.8 468.8 270.09999999999997 L 407.5 305.49999999999994 C 405.2 306.79999999999995 402.4 306.79999999999995 400.1 305.49999999999994 L 338.8 270.09999999999997 C 336.5 268.79999999999995 335.1 266.29999999999995 335.1 263.7 L 335.1 192.89999999999998 C 335.1 190.29999999999998 336.5 187.79999999999998 338.8 186.49999999999997 L 400.1 151.09999999999997 C 402.40000000000003 149.79999999999995 405.20000000000005 149.79999999999995 407.5 151.09999999999997 L 422.8 159.89999999999998 C 424.5 160.89999999999998 426.7 159.59999999999997 426.7 157.7 L 426.7 63.69999999999999 C 426.7 60.89999999999999 429.7 59.09999999999999 432.2 60.499999999999986 L 468.7 80.89999999999998 C 471 82.09999999999998 472.5 84.59999999999998 472.5 87.29999999999998 z M 426.5 216.2 C 426.5 215.5 426.1 214.89999999999998 425.6 214.6 L 404.6 202.4 C 404 202.1 403.3 202.1 402.70000000000005 202.4 L 381.70000000000005 214.6 C 381.1 214.9 380.80000000000007 215.5 380.80000000000007 216.2 L 380.80000000000007 240.5 C 380.80000000000007 241.2 381.20000000000005 241.8 381.70000000000005 242.1 L 402.70000000000005 254.2 C 403.30000000000007 254.5 404.00000000000006 254.5 404.50000000000006 254.2 L 425.50000000000006 242.1 C 426.1000000000001 241.79999999999998 426.40000000000003 241.2 426.40000000000003 240.5 L 426.40000000000003 216.2 z M 636.3 215.5 C 638.5999999999999 214.2 640 211.7 640 209.1 L 640 192 C 640 189.4 638.6 186.9 636.3 185.6 L 575.4 150.2 C 573.1 148.89999999999998 570.3 148.89999999999998 568 150.2 L 506.7 185.6 C 504.4 186.9 503 189.4 503 192 L 503 262.8 C 503 265.5 504.4 267.90000000000003 506.7 269.2 L 567.6 303.9 C 569.8000000000001 305.2 572.6 305.2 574.9 303.9 L 611.6999999999999 283.4 C 614.1999999999999 282 614.1999999999999 278.4 611.6999999999999 277 L 550 241.6 C 548.8 240.9 548.1 239.7 548.1 238.4 L 548.1 216.20000000000002 C 548.1 214.9 548.8000000000001 213.70000000000002 550 213.00000000000003 L 569.2 201.90000000000003 C 570.3000000000001 201.20000000000005 571.8000000000001 201.20000000000005 572.9000000000001 201.90000000000003 L 592.1000000000001 213.00000000000003 C 593.2000000000002 213.70000000000002 594.0000000000001 214.90000000000003 594.0000000000001 216.20000000000002 L 594.0000000000001 233.60000000000002 C 594.0000000000001 236.40000000000003 597.1000000000001 238.20000000000002 599.6000000000001 236.8 L 636.3000000000002 215.5 z M 559 219 C 558.6 219.3 558.3 219.7 558.3 220.2 L 558.3 233.79999999999998 C 558.3 234.29999999999998 558.5999999999999 234.79999999999998 559 234.99999999999997 L 570.8 241.79999999999998 C 571.1999999999999 242.1 571.8 242.1 572.1999999999999 241.79999999999998 L 584 235 C 584.4 234.7 584.7 234.3 584.7 233.8 L 584.7 220.20000000000002 C 584.7 219.70000000000002 584.4000000000001 219.20000000000002 584 219.00000000000003 L 572.2 212.20000000000002 C 571.8000000000001 211.9 571.2 211.9 570.8000000000001 212.20000000000002 L 559 219 z M 304.8 262.5 L 304.8 192.1 C 304.8 189.5 303.2 187 300.90000000000003 185.7 L 239.80000000000004 150.5 C 237.70000000000005 149.3 234.80000000000004 149.1 232.40000000000003 150.5 L 171.30000000000004 185.7 C 169.00000000000003 187 167.40000000000003 189.39999999999998 167.40000000000003 192.1 L 167.40000000000003 262.5 C 167.40000000000003 265.3 169.30000000000004 267.7 171.40000000000003 268.9 L 232.60000000000002 304.09999999999997 C 235.00000000000003 305.49999999999994 237.8 305.4 240.00000000000003 304.09999999999997 L 301 268.9 C 302.8 267.9 304.1 266.2 304.6 264.2 C 304.70000000000005 263.7 304.8 263.09999999999997 304.8 262.5 z M 230.5 137.6 L 229.7 138.1 L 230.79999999999998 138.1 L 230.49999999999997 137.6 z M 306.7 267.79999999999995 L 306.3 267.09999999999997 L 306.3 267.99999999999994 L 306.7 267.79999999999995 z" stroke-linecap="round" />
</g>
<g transform="matrix(NaN NaN NaN NaN 0 0)"  >
<g style=""   >
</g>
</g>
<g transform="matrix(NaN NaN NaN NaN 0 0)"  >
<g style=""   >
</g>
</g>
<g transform="matrix(NaN NaN NaN NaN 0 0)"  >
<g style=""   >
</g>
</g>
</svg>