<?xml version="1.0" encoding="UTF-8" standalone="no" ?>
<!DOCTYPE svg PUBLIC "-//W3C//DTD SVG 1.1//EN" "http://www.w3.org/Graphics/SVG/1.1/DTD/svg11.dtd">
<svg xmlns="http://www.w3.org/2000/svg" xmlns:xlink="http://www.w3.org/1999/xlink" version="1.1" width="1080" height="1080" viewBox="0 0 1080 1080" xml:space="preserve">
<desc>Created with Fabric.js 5.2.4</desc>
<defs>
</defs>
<rect x="0" y="0" width="100%" height="100%" fill="transparent"></rect>
<g transform="matrix(1 0 0 1 540 540)" id="5adcb299-3436-41b2-a0cd-a8bdfa8b3f37"  >
</g>
<g transform="matrix(1 0 0 1 540 540)" id="872d7d46-9501-47fb-acb8-ea5a9c0934e0"  >
<rect style="stroke: none; stroke-width: 1; stroke-dasharray: none; stroke-linecap: butt; stroke-dashoffset: 0; stroke-linejoin: miter; stroke-miterlimit: 4; fill: rgb(255,255,255); fill-rule: nonzero; opacity: 1; visibility: hidden;" vector-effect="non-scaling-stroke"  x="-540" y="-540" rx="0" ry="0" width="1080" height="1080" />
</g>
<g transform="matrix(0 0 0 0 0 0)"  >
<g style=""   >
</g>
</g>
<g transform="matrix(0 0 0 0 0 0)"  >
<g style=""   >
</g>
</g>
<g transform="matrix(0 0 0 0 0 0)"  >
<g style=""   >
</g>
</g>
<g transform="matrix(0 0 0 0 0 0)"  >
<g style=""   >
</g>
</g>
<g transform="matrix(0 0 0 0 0 0)"  >
<g style=""   >
</g>
</g>
<g transform="matrix(0 0 0 0 0 0)"  >
<g style=""   >
</g>
</g>
<g transform="matrix(0 0 0 0 0 0)"  >
<g style=""   >
</g>
</g>
<g transform="matrix(0 0 0 0 0 0)"  >
<g style=""   >
</g>
</g>
<g transform="matrix(0 0 0 0 0 0)"  >
<g style=""   >
</g>
</g>
<g transform="matrix(0 0 0 0 0 0)"  >
<g style=""   >
</g>
</g>
<g transform="matrix(0 0 0 0 0 0)"  >
<g style=""   >
</g>
</g>
<g transform="matrix(0 0 0 0 0 0)"  >
<g style=""   >
</g>
</g>
<g transform="matrix(0 0 0 0 0 0)"  >
<g style=""   >
</g>
</g>
<g transform="matrix(0 0 0 0 0 0)"  >
<g style=""   >
</g>
</g>
<g transform="matrix(0 0 0 0 0 0)"  >
<g style=""   >
</g>
</g>
<g transform="matrix(0 0 0 0 0 0)"  >
<g style=""   >
</g>
</g>
<g transform="matrix(0 0 0 0 0 0)"  >
<g style=""   >
</g>
</g>
<g transform="matrix(NaN NaN NaN NaN 0 0)"  >
<g style=""   >
</g>
</g>
<g transform="matrix(NaN NaN NaN NaN 0 0)"  >
<g style=""   >
</g>
</g>
<g transform="matrix(NaN NaN NaN NaN 0 0)"  >
<g style=""   >
</g>
</g>
<g transform="matrix(NaN NaN NaN NaN 0 0)"  >
<g style=""   >
</g>
</g>
<g transform="matrix(1.3 0 0 1.3 540 487.37)"  >
<g style="" vector-effect="non-scaling-stroke"   >
		<g transform="matrix(25 0 0 25 0 -0.6)"  >
<path style="stroke: none; stroke-width: 1; stroke-dasharray: none; stroke-linecap: butt; stroke-dashoffset: 0; stroke-linejoin: miter; stroke-miterlimit: 4; fill: rgb(255,219,110); fill-rule: nonzero; opacity: 1;" vector-effect="non-scaling-stroke"  transform=" translate(-16, -15.98)" d="M 18.6789 15.9759 C 18.6789 14.5415 17.4796 13.3785 16 13.3785 C 14.5206 13.3785 13.3211 14.5415 13.3211 15.9759 C 13.3211 17.4105 14.5206 18.5734 16 18.5734 C 17.4796 18.5734 18.6789 17.4105 18.6789 15.9759 Z" stroke-linecap="round" />
</g>
		<g transform="matrix(25 0 0 25 0 0)"  >
<path style="stroke: none; stroke-width: 1; stroke-dasharray: none; stroke-linecap: butt; stroke-dashoffset: 0; stroke-linejoin: miter; stroke-miterlimit: 4; fill: rgb(255,219,110); fill-rule: evenodd; opacity: 1;" vector-effect="non-scaling-stroke"  transform=" translate(-16, -16)" d="M 24.7004 11.1537 C 25.2661 8.92478 25.9772 4.79148 23.4704 3.39016 C 20.9753 1.99495 17.7284 4.66843 16.0139 6.27318 C 14.3044 4.68442 10.9663 2.02237 8.46163 3.42814 C 5.96751 4.82803 6.73664 8.8928 7.3149 11.1357 C 4.98831 11.7764 1 13.1564 1 15.9759 C 1 18.7874 4.98416 20.2888 7.29698 20.9289 C 6.71658 23.1842 5.98596 27.1909 8.48327 28.5877 C 10.9973 29.9932 14.325 27.3945 16.0554 25.7722 C 17.7809 27.3864 20.9966 30.0021 23.4922 28.6014 C 25.9956 27.1963 25.3436 23.1184 24.7653 20.8625 C 27.0073 20.221 31 18.7523 31 15.9759 C 31 13.1835 26.9903 11.7923 24.7004 11.1537 Z M 24.4162 19.667 C 24.0365 18.5016 23.524 17.2623 22.8971 15.9821 C 23.4955 14.7321 23.9881 13.5088 24.3572 12.3509 C 26.0359 12.8228 29.7185 13.9013 29.7185 15.9759 C 29.7185 18.07 26.1846 19.1587 24.4162 19.667 Z M 22.85 27.526 C 20.988 28.571 18.2221 26.0696 16.9478 24.8809 C 17.7932 23.9844 18.638 22.9422 19.4625 21.7849 C 20.9129 21.6602 22.283 21.4562 23.5256 21.1777 C 23.9326 22.7734 24.7202 26.4763 22.85 27.526 Z M 9.12362 27.5111 C 7.26143 26.47 8.11258 22.8946 8.53957 21.2333 C 9.76834 21.4969 11.1286 21.6865 12.5824 21.8008 C 13.4123 22.9332 14.2816 23.9741 15.1576 24.8857 C 14.0753 25.9008 10.9945 28.557 9.12362 27.5111 Z M 2.28149 15.9759 C 2.28149 13.874 5.94207 12.8033 7.65904 12.3326 C 8.03451 13.5165 8.52695 14.7544 9.12123 16.0062 C 8.51925 17.2766 8.01977 18.5341 7.64085 19.732 C 6.00369 19.2776 2.28149 18.0791 2.28149 15.9759 Z M 9.1037 4.50354 C 10.9735 3.45416 13.8747 6.00983 15.1159 7.16013 C 14.2444 8.06754 13.3831 9.1006 12.5603 10.2265 C 11.1494 10.3533 9.79875 10.5569 8.55709 10.8297 C 8.09125 9.02071 7.23592 5.55179 9.1037 4.50354 Z M 20.3793 11.5771 C 21.3365 11.6942 22.2536 11.85 23.1147 12.0406 C 22.8562 12.844 22.534 13.6841 22.1545 14.5453 C 21.6044 13.5333 21.0139 12.5416 20.3793 11.5771 Z M 16.0143 8.0481 C 16.6054 8.66897 17.1974 9.3623 17.7798 10.1145 C 16.5985 10.0603 15.4153 10.0601 14.234 10.1137 C 14.8169 9.36848 15.414 8.67618 16.0143 8.0481 Z M 9.8565 14.5444 C 9.48329 13.6862 9.16398 12.8424 8.90322 12.0275 C 9.75918 11.8418 10.672 11.69 11.623 11.5748 C 10.9866 12.5372 10.3971 13.5285 9.8565 14.5444 Z M 11.6503 20.4657 C 10.6679 20.3594 9.74126 20.2153 8.88556 20.0347 C 9.15044 19.2055 9.47678 18.3435 9.85796 17.4668 C 10.406 18.4933 11.0045 19.4942 11.6503 20.4657 Z M 16.0498 23.9915 C 15.4424 23.356 14.8365 22.6531 14.2448 21.8971 C 15.4328 21.9423 16.6231 21.9424 17.811 21.891 C 17.2268 22.6608 16.6369 23.3647 16.0498 23.9915 Z M 22.1667 17.4222 C 22.5677 18.3084 22.9057 19.1657 23.1742 19.9809 C 22.3043 20.1734 21.3652 20.3284 20.3757 20.4435 C 21.015 19.4607 21.6149 18.4536 22.1667 17.4222 Z M 18.7473 20.5941 C 16.9301 20.72 15.1016 20.7186 13.2838 20.6044 C 12.2509 19.1415 11.3314 17.603 10.5377 16.0058 C 11.3276 14.4119 12.2404 12.8764 13.2684 11.4158 C 15.0875 11.2825 16.9178 11.2821 18.7369 11.4166 C 19.7561 12.8771 20.6675 14.4086 21.4757 15.9881 C 20.6771 17.5812 19.7595 19.1198 18.7473 20.5941 Z M 22.8303 4.4666 C 24.7006 5.51254 23.8681 9.22726 23.4595 10.8426 C 22.2149 10.5641 20.8633 10.3569 19.4483 10.2281 C 18.6239 9.09004 17.7698 8.05518 16.9124 7.15949 C 18.1695 5.98441 20.9781 3.43089 22.8303 4.4666 Z" stroke-linecap="round" />
</g>
</g>
</g>
<g transform="matrix(NaN NaN NaN NaN 0 0)"  >
<g style=""   >
</g>
</g>
</svg>