<?xml version="1.0" encoding="UTF-8" standalone="no" ?>
<!DOCTYPE svg PUBLIC "-//W3C//DTD SVG 1.1//EN" "http://www.w3.org/Graphics/SVG/1.1/DTD/svg11.dtd">
<svg xmlns="http://www.w3.org/2000/svg" xmlns:xlink="http://www.w3.org/1999/xlink" version="1.1" width="1080" height="1080" viewBox="0 0 1080 1080" xml:space="preserve">
<desc>Created with Fabric.js 5.2.4</desc>
<defs>
</defs>
<rect x="0" y="0" width="100%" height="100%" fill="transparent"></rect>
<g transform="matrix(1 0 0 1 540 540)" id="5adcb299-3436-41b2-a0cd-a8bdfa8b3f37"  >
</g>
<g transform="matrix(1 0 0 1 540 540)" id="872d7d46-9501-47fb-acb8-ea5a9c0934e0"  >
<rect style="stroke: none; stroke-width: 1; stroke-dasharray: none; stroke-linecap: butt; stroke-dashoffset: 0; stroke-linejoin: miter; stroke-miterlimit: 4; fill: rgb(255,255,255); fill-rule: nonzero; opacity: 1; visibility: hidden;" vector-effect="non-scaling-stroke"  x="-540" y="-540" rx="0" ry="0" width="1080" height="1080" />
</g>
<g transform="matrix(0 0 0 0 0 0)"  >
<g style=""   >
</g>
</g>
<g transform="matrix(0 0 0 0 0 0)"  >
<g style=""   >
</g>
</g>
<g transform="matrix(0 0 0 0 0 0)"  >
<g style=""   >
</g>
</g>
<g transform="matrix(0 0 0 0 0 0)"  >
<g style=""   >
</g>
</g>
<g transform="matrix(0 0 0 0 0 0)"  >
<g style=""   >
</g>
</g>
<g transform="matrix(7.17 0 0 7.17 540 540)"  >
<g style="" vector-effect="non-scaling-stroke"   >
		<g transform="matrix(1 0 0 1 -37.18 55.72)" id="path3993"  >
<path style="stroke: none; stroke-width: 1; stroke-dasharray: none; stroke-linecap: butt; stroke-dashoffset: 0; stroke-linejoin: miter; stroke-miterlimit: 4; fill: rgb(255,219,110); fill-rule: nonzero; opacity: 1;" vector-effect="non-scaling-stroke"  transform=" translate(-296.77, -567.08)" d="M 286.594 555.5 L 286.594 578.656 L 292.5 578.656 L 292.5 572.625 L 297.875 578 L 306.937 578 L 299.749 570.812 C 299.749 570.812 304.92 570.7280000000001 305.31100000000004 563.25 C 305.31100000000004 556.389 300.134 555.5 294.15500000000003 555.5 L 286.594 555.5 z M 292.781 561.781 L 297.875 561.781 L 297.875 565.906 L 292.781 565.906 L 292.781 561.781 z" stroke-linecap="round" />
</g>
		<g transform="matrix(1 0 0 1 -14.31 55.47)" id="path3997"  >
<path style="stroke: none; stroke-width: 1; stroke-dasharray: none; stroke-linecap: butt; stroke-dashoffset: 0; stroke-linejoin: miter; stroke-miterlimit: 4; fill: rgb(255,219,110); fill-rule: nonzero; opacity: 1;" vector-effect="non-scaling-stroke"  transform=" translate(-319.64, -566.83)" d="M 318.344 555.594 C 315.11 555.575 310.625 555.875 310.625 561.969 L 310.625 578.0630000000001 L 316.687 578.0630000000001 L 316.687 574.1250000000001 L 322.562 574.1250000000001 L 322.562 577.9690000000002 L 328.656 577.9690000000002 L 328.656 561.0940000000002 C 328.656 555.8010000000002 322.775 555.5940000000002 319.625 555.5940000000002 C 319.231 555.594 318.806 555.597 318.344 555.594 z M 316.781 561.406 L 322.469 561.406 L 322.469 567.75 L 316.781 567.75 L 316.781 561.406 z" stroke-linecap="round" />
</g>
		<g transform="matrix(1 0 0 1 3.92 55.32)" id="rect4001"  >
<rect style="stroke: none; stroke-width: 1; stroke-dasharray: none; stroke-linecap: butt; stroke-dashoffset: 0; stroke-linejoin: miter; stroke-miterlimit: 4; fill: rgb(255,219,110); fill-rule: nonzero; opacity: 1;" vector-effect="non-scaling-stroke"  x="-3.136" y="-11.076" rx="0" ry="0" width="6.272" height="22.152" />
</g>
		<g transform="matrix(1 0 0 1 21.17 55.57)" id="path4003"  >
<path style="stroke: none; stroke-width: 1; stroke-dasharray: none; stroke-linecap: butt; stroke-dashoffset: 0; stroke-linejoin: miter; stroke-miterlimit: 4; fill: rgb(255,219,110); fill-rule: nonzero; opacity: 1;" vector-effect="non-scaling-stroke"  transform=" translate(-355.12, -566.93)" d="M 347.571 555.903 L 347.571 578.0550000000001 L 362.665 578.0550000000001 L 362.665 572.1740000000001 L 353.74600000000004 572.1740000000001 L 353.74600000000004 555.8050000000001 L 347.571 555.903 z" stroke-linecap="round" />
</g>
		<g transform="matrix(1 0 0 1 40.82 55.57)" id="path4005"  >
<path style="stroke: none; stroke-width: 1; stroke-dasharray: none; stroke-linecap: butt; stroke-dashoffset: 0; stroke-linejoin: miter; stroke-miterlimit: 4; fill: rgb(255,219,110); fill-rule: nonzero; opacity: 1;" vector-effect="non-scaling-stroke"  transform=" translate(-374.77, -566.93)" d="M 382.661 555.707 L 382.661 561.686 L 372.565 561.686 L 372.565 563.842 C 372.565 563.842 374.624 563.842 376.877 563.842 C 379.13 563.842 383.836 563.744 383.836 570.802 C 383.836 577.859 380.60200000000003 578.251 374.035 578.251 C 367.46700000000004 578.251 366.096 578.251 366.096 578.251 L 366.096 572.8589999999999 C 366.096 572.8589999999999 372.467 572.8589999999999 375.211 572.8589999999999 C 377.95500000000004 572.8589999999999 378.107 571.9649999999999 378.107 571.1869999999999 C 378.107 570.4089999999999 376.704 570.0459999999999 373.85 570.0459999999999 C 370.99600000000004 570.0459999999999 365.704 568.6439999999999 365.704 563.155 C 365.704 557.6659999999999 368.44800000000004 555.607 373.937 555.607 C 379.426 555.607 382.661 555.707 382.661 555.707 L 382.661 555.707 z" stroke-linecap="round" />
</g>
		<g transform="matrix(1 0 0 1 5.64 -11.79)" id="path3966"  >
<path style="stroke: none; stroke-width: 1; stroke-dasharray: none; stroke-linecap: butt; stroke-dashoffset: 0; stroke-linejoin: miter; stroke-miterlimit: 4; fill: rgb(255,219,110); fill-rule: nonzero; opacity: 1;" vector-effect="non-scaling-stroke"  transform=" translate(-339.59, -499.57)" d="M 292.092 548.944 L 344.238 548.944 C 344.238 548.944 332.672 522.675 335.612 498.563 C 338.553 474.45099999999996 357.56800000000004 463.472 368.35 462.296 C 379.13100000000003 461.11899999999997 385.01300000000003 467.78499999999997 385.01300000000003 467.78499999999997 L 387.36600000000004 464.256 C 387.36600000000004 464.256 371.879 448.573 352.27500000000003 450.33799999999997 C 332.67100000000005 452.102 319.14500000000004 465.03999999999996 310.716 480.72299999999996 C 302.286 496.407 297.385 507.38399999999996 294.053 523.851 C 290.721 540.318 292.092 548.944 292.092 548.944 z" stroke-linecap="round" />
</g>
		<g transform="matrix(1 0 0 1 -47.73 16.8)" id="path3968"  >
<path style="stroke: none; stroke-width: 1; stroke-dasharray: none; stroke-linecap: butt; stroke-dashoffset: 0; stroke-linejoin: miter; stroke-miterlimit: 4; fill: rgb(255,219,110); fill-rule: nonzero; opacity: 1;" vector-effect="non-scaling-stroke"  transform=" translate(-286.21, -528.16)" d="M 281.703 522.675 L 291.897 523.459 L 290.132 533.6519999999999 L 280.527 532.4759999999999 L 281.703 522.675 z" stroke-linecap="round" />
</g>
		<g transform="matrix(1 0 0 1 -39.4 -15.84)" id="path3970"  >
<path style="stroke: none; stroke-width: 1; stroke-dasharray: none; stroke-linecap: butt; stroke-dashoffset: 0; stroke-linejoin: miter; stroke-miterlimit: 4; fill: rgb(255,219,110); fill-rule: nonzero; opacity: 1;" vector-effect="non-scaling-stroke"  transform=" translate(-294.54, -495.52)" d="M 297.778 501.111 L 300.523 493.466 L 291.505 489.937 L 288.565 498.17 L 297.778 501.111 z" stroke-linecap="round" />
</g>
		<g transform="matrix(1 0 0 1 -24.31 -41.91)" id="path3972"  >
<path style="stroke: none; stroke-width: 1; stroke-dasharray: none; stroke-linecap: butt; stroke-dashoffset: 0; stroke-linejoin: miter; stroke-miterlimit: 4; fill: rgb(255,219,110); fill-rule: nonzero; opacity: 1;" vector-effect="non-scaling-stroke"  transform=" translate(-309.64, -469.45)" d="M 310.52 474.842 L 315.813 468.57 L 308.952 464.061 L 303.463 470.137 L 310.52 474.842 z" stroke-linecap="round" />
</g>
		<g transform="matrix(1 0 0 1 -3.92 -59.65)" id="path3974"  >
<path style="stroke: none; stroke-width: 1; stroke-dasharray: none; stroke-linecap: butt; stroke-dashoffset: 0; stroke-linejoin: miter; stroke-miterlimit: 4; fill: rgb(255,219,110); fill-rule: nonzero; opacity: 1;" vector-effect="non-scaling-stroke"  transform=" translate(-330.02, -451.71)" d="M 324.438 450.534 L 329.143 456.219 L 335.61199999999997 452.49399999999997 L 330.907 447.20099999999996 L 324.438 450.534 z" stroke-linecap="round" />
</g>
		<g transform="matrix(1 0 0 1 18.04 -64.45)" id="path3976"  >
<path style="stroke: none; stroke-width: 1; stroke-dasharray: none; stroke-linecap: butt; stroke-dashoffset: 0; stroke-linejoin: miter; stroke-miterlimit: 4; fill: rgb(255,219,110); fill-rule: nonzero; opacity: 1;" vector-effect="non-scaling-stroke"  transform=" translate(-351.98, -446.91)" d="M 347.375 444.065 L 348.551 449.751 L 356.589 449.55499999999995 L 355.804 444.45799999999997 L 347.375 444.065 z" stroke-linecap="round" />
</g>
		<g transform="matrix(1 0 0 1 43.81 -57.98)" id="path3978"  >
<path style="stroke: none; stroke-width: 1; stroke-dasharray: none; stroke-linecap: butt; stroke-dashoffset: 0; stroke-linejoin: miter; stroke-miterlimit: 4; fill: rgb(255,219,110); fill-rule: nonzero; opacity: 1;" vector-effect="non-scaling-stroke"  transform=" translate(-377.76, -453.38)" d="M 374.624 450.142 L 374.428 453.67 L 379.917 456.61 L 381.09299999999996 454.846 L 374.624 450.142 z" stroke-linecap="round" />
</g>
		<g transform="matrix(1 0 0 1 42.15 -44.36)" id="path3980"  >
<path style="stroke: none; stroke-width: 1; stroke-dasharray: none; stroke-linecap: butt; stroke-dashoffset: 0; stroke-linejoin: miter; stroke-miterlimit: 4; fill: rgb(255,219,110); fill-rule: nonzero; opacity: 1;" vector-effect="non-scaling-stroke"  transform=" translate(-376.09, -467)" d="M 373.447 465.237 L 373.447 468.177 L 378.74 468.76500000000004 L 378.74 466.41200000000003 L 373.447 465.237 z" stroke-linecap="round" />
</g>
		<g transform="matrix(1 0 0 1 25.78 -41.91)" id="path3982"  >
<path style="stroke: none; stroke-width: 1; stroke-dasharray: none; stroke-linecap: butt; stroke-dashoffset: 0; stroke-linejoin: miter; stroke-miterlimit: 4; fill: rgb(255,219,110); fill-rule: nonzero; opacity: 1;" vector-effect="non-scaling-stroke"  transform=" translate(-359.73, -469.45)" d="M 356.589 467.785 L 359.137 472.48900000000003 L 362.862 469.54900000000004 L 362.07800000000003 466.41200000000003 L 356.589 467.785 z" stroke-linecap="round" />
</g>
		<g transform="matrix(1 0 0 1 14.51 -32.5)" id="path3984"  >
<path style="stroke: none; stroke-width: 1; stroke-dasharray: none; stroke-linecap: butt; stroke-dashoffset: 0; stroke-linejoin: miter; stroke-miterlimit: 4; fill: rgb(255,219,110); fill-rule: nonzero; opacity: 1;" vector-effect="non-scaling-stroke"  transform=" translate(-348.45, -478.86)" d="M 348.55 473.863 L 352.471 479.744 L 350.118 483.86 L 344.433 477.588 L 348.55 473.863 z" stroke-linecap="round" />
</g>
		<g transform="matrix(1 0 0 1 8.33 -15.84)" id="path3986"  >
<path style="stroke: none; stroke-width: 1; stroke-dasharray: none; stroke-linecap: butt; stroke-dashoffset: 0; stroke-linejoin: miter; stroke-miterlimit: 4; fill: rgb(255,219,110); fill-rule: nonzero; opacity: 1;" vector-effect="non-scaling-stroke"  transform=" translate(-342.28, -495.52)" d="M 340.71 490.133 L 338.161 495.22999999999996 L 344.826 500.91599999999994 L 346.394 494.4459999999999 L 340.71 490.133 z" stroke-linecap="round" />
</g>
		<g transform="matrix(1 0 0 1 7.74 1.81)" id="path3988"  >
<path style="stroke: none; stroke-width: 1; stroke-dasharray: none; stroke-linecap: butt; stroke-dashoffset: 0; stroke-linejoin: miter; stroke-miterlimit: 4; fill: rgb(255,219,110); fill-rule: nonzero; opacity: 1;" vector-effect="non-scaling-stroke"  transform=" translate(-341.69, -513.17)" d="M 337.965 507.972 L 337.573 514.833 L 345.806 518.362 L 345.414 511.89199999999994 L 337.965 507.972 z" stroke-linecap="round" />
</g>
		<g transform="matrix(1 0 0 1 12.55 24.74)" id="path3990"  >
<path style="stroke: none; stroke-width: 1; stroke-dasharray: none; stroke-linecap: butt; stroke-dashoffset: 0; stroke-linejoin: miter; stroke-miterlimit: 4; fill: rgb(255,219,110); fill-rule: nonzero; opacity: 1;" vector-effect="non-scaling-stroke"  transform=" translate(-346.49, -536.1)" d="M 340.317 532.281 L 342.278 539.3389999999999 L 352.66700000000003 539.9269999999999 L 348.942 532.281 L 340.317 532.281 z" stroke-linecap="round" />
</g>
</g>
</g>
<g transform="matrix(NaN NaN NaN NaN 0 0)"  >
<g style=""   >
</g>
</g>
<g transform="matrix(NaN NaN NaN NaN 0 0)"  >
<g style=""   >
</g>
</g>
<g transform="matrix(NaN NaN NaN NaN 0 0)"  >
<g style=""   >
</g>
</g>
</svg>